<svg xmlns="http://www.w3.org/2000/svg" viewBox="0 0 48 48" width="144px" height="144px" clip-rule="evenodd">
    <path fill="#fbe8e6" fill-rule="evenodd"
        d="M7.466,38.466c0,0-4.931-5.852-4.735-11.09	c0.187-5,2.053-9.57,8.306-14.242c5.226-3.905,9.583-2.922,12.31-4.452c1.98-1.111,4.051-4.731,4.051-4.731	c1.165,0.012,1.643,0.682,2.279,1.46c0.8-1.314,1.757-1.931,2.714-2.413c1.435,0.754,2.49,1.874,2.871,3.805	c0.478-1.272,1.435-1.699,2.655-1.699c1.172,0.79,1.439,2.238,1.172,3.579c0.478-0.714,1.277-1.823,2.246-1.88	c0,0,3.03,3.923,3.957,9.127c0.926,5.204-0.199,12.418-2.16,15.672c-1.961,3.254-5.957,7.112-13.099,8.722	c-6.217,1.401-7.439-0.367-13.734,2.674C12.02,41.079,7.466,38.466,7.466,38.466z"
        clip-rule="evenodd" />
    <path fill="#ffcbba" fill-rule="evenodd"
        d="M5.596,33.886c-0.302-1.777,0.137-4.937,1.435-7.451	c-0.101,4.041,0.525,7.182,1.914,9.382c0.09-2.568,1.136-4.686,3.349-6.274c-1.335,3.967-1.345,5.424-0.957,6.757	c0.854-1.851,2.392-3.217,4.785-4.344c-1.642,3.109-2.481,4.591-2.392,6.157c1.949-0.369,4.022-1.61,6.22-3.744	c-0.696,2.513-1.877,4.435-3.524,5.792l7.352-2.048l-4.785,3.013l-3.244,1.448l-7.282-3.678L5.596,33.886z"
        clip-rule="evenodd" />
    <path fill="#ffaa8d" fill-rule="evenodd"
        d="M15.75,41.92l4.486-2.227c0,0,14.123,0.649,20.218-6.622	c5.601-6.683,5.168-17.043,0.949-24.82V6.805c0,0,2.68,3.817,3.664,8.049c1.171,5.041,1.617,9.727-1.007,15.811	c-3.309,7.671-11.635,9.73-17.606,10.461c-1.801,0.22-5.236,0.167-7.24,0.645c-2.36,0.563-3.09,1.768-3.09,1.768L15.75,41.92z"
        clip-rule="evenodd" />
    <path fill="#ffaa8d" fill-rule="evenodd"
        d="M8.721,37.308c0,0-4.716-5.113-4.749-11.167	c-0.023-4.11,2.45-7.865,6.887-11.326c4.306-3.358,8.683-3.072,12.743-5.003c2.022-0.962,4.103-3.522,4.494-4.868l-0.711-0.983	c0,0-2.172,4.108-5.521,5.095c-1.994,0.588-4.42,0.992-6.412,1.662c-3.413,1.146-7.148,2.971-10.058,6.733	c-4.389,5.674-3.53,10.882-2.927,12.972c1.325,4.585,5.395,8.472,5.395,8.472L8.721,37.308z"
        clip-rule="evenodd" />
    <path fill="#ffaa8d" fill-rule="evenodd"
        d="M12.45,39.342c2.545,1.221,4.238,3.004,3.778,3.979	c-0.46,0.975-2.899,0.775-5.444-0.446c-2.545-1.221-4.238-3.004-3.778-3.979C7.466,37.921,9.906,38.121,12.45,39.342z"
        clip-rule="evenodd" />
    <path fill="#ffaa8d" fill-rule="evenodd"
        d="M7.032,38.896c0,0,0.735-0.654-0.025-1.867	c-0.76-1.213,1.13,0.924,1.13,0.924l-0.375,0.943H7.032z"
        clip-rule="evenodd" />
    <path fill="#ffaa8d" fill-rule="evenodd"
        d="M8.467,38.713c-2.222-3.087-2.871-6.37-1.914-9.748	c0.203,4.047,1.2,6.585,2.871,9.266c-0.147-2.224,0-4.344,1.914-7.24c-0.957,3.379-1.119,5.792-0.478,7.894	c0.586-1.693,1.534-3.368,3.349-4.998c-1.362,2.411-1.603,4.241-1.668,5.792c1.998-0.624,4.418-1.89,6.453-3.861	c-1.914,2.896-3.618,4.042-4.785,4.826c1.914,0.483,3.092,0.213,5.263-0.483c-1.435,1.226-2.798,1.956-3.828,2.413l-5.263-1.931	L8.467,38.713z"
        clip-rule="evenodd" />
    <path fill="#ffcbba" fill-rule="evenodd"
        d="M12.17,40.074c1.872,0.968,3.128,2.273,2.803,2.914	c-0.325,0.641-2.11,0.376-3.982-0.592c-1.872-0.967-3.129-2.273-2.803-2.914C8.513,38.841,10.297,39.106,12.17,40.074z"
        clip-rule="evenodd" />
    <path fill="#ffcbba" fill-rule="evenodd"
        d="M19.256,38.528c0,0,4.138-2.269,8.351-2.895	c5.263-0.782,9.627-2.26,11.005-3.678c1.147-1.18,0.957-2.299,0.957-2.299s1.945-1.069,2.392-2.527	c0.478-1.56-0.957-2.896-0.957-2.896s0.841-0.193,0.957-2.413c0.078-1.485-1.435-2.104-1.435-2.104s0.158,4.347-1.826,7.817	c-0.957,1.674-2.603,3.458-5.891,4.423c-3.288,0.965-6.389,2.018-9.03,3.586C21.138,37.109,19.256,38.528,19.256,38.528z"
        clip-rule="evenodd" />
    <path fill="#ffcbba" fill-rule="evenodd"
        d="M8.816,30.774c0,0,0.201-6.058,3.156-9.437	c2.317-2.649,4.56-3.111,6.22-3.663c1.66-0.551,7.62-3.069,7.62-3.069s-3.544,2.553-10.012,5.593	c-2.014,0.947-3.05,2.177-4.096,3.773C10.058,26.485,8.816,30.774,8.816,30.774z"
        clip-rule="evenodd" />
    <path fill="#ffcbba" fill-rule="evenodd"
        d="M16.601,34.665c0,0,6.378-2.605,8.666-4.865	c1.456-1.438,4.512-2.782,4.907-1.825c-0.003-1.435,0.902-2.33,2.696-2.096c-0.66-0.949-0.141-1.986,1.085-1.853	c-0.745-1.325-0.374-2.273,0.829-2.419c-0.957-0.561-1.303-2.201-1.435-4.132c0,0-0.478,5.111-3.561,7.24	c-3.384,2.337-7.184,4.128-8.879,5.576C17.609,33.108,16.601,34.665,16.601,34.665z"
        clip-rule="evenodd" />
    <path fill="#ffaa8d" fill-rule="evenodd"
        d="M7.531,24.536c0,0-0.705-5.864,7.216-9.805	c5.185-2.58,7.343-0.81,12.747-4.189c-5.405,4.491-6.83,2.613-12.394,5.263C10.67,17.914,8.513,20.855,7.531,24.536z"
        clip-rule="evenodd" />
    <path fill="#ffaa8d" fill-rule="evenodd"
        d="M8.816,30.99c0,0,0.478-9.17,8.898-12.549	c2.745-1.101,4.023-1.152,8.134-3.861c-2.651,2.413-3.349,3.087-6.424,4.344C13.348,21.408,11.015,25.003,8.816,30.99z"
        clip-rule="evenodd" />
    <path fill="#ffaa8d" fill-rule="evenodd"
        d="M18.994,38.713c1.501-1.636,2.288-2.931,7.656-5.107	c4.073-1.651,8.721-2.316,11.005-5.538c1.771-2.498,2.871-7.213,2.871-7.213s0.322,3.58-1.681,7.24	c-2.392,4.37-7.469,4.62-10.575,5.792C23.152,35.817,20.792,37.441,18.994,38.713z"
        clip-rule="evenodd" />
    <path fill="#ffaa8d" fill-rule="evenodd"
        d="M34.067,4.445c0,0,2.152,4.211-0.241,5.309	c0.071,1.744-1.594,1.919-3.027,1.669c-0.143,0.856-0.801,1.554-3.052,2.193c3.386,0,3.801-1.227,3.801-1.227	s2.756,0.262,3.083-1.947C36.43,9.261,36.04,6.648,34.067,4.445z"
        clip-rule="evenodd" />
    <path fill="#ffaa8d" fill-rule="evenodd"
        d="M28.45,18.008c0,0,0.366,3.705-2.742,3.506	c-0.3,1.694-2.208,1.752-3.754,1.598c-0.589,0.721-0.29,1.474-4.109,1.688c3.385,1.093,4.68-0.587,4.68-0.587	s3.39,0.487,3.877-1.385C28.751,22.29,29.935,19.726,28.45,18.008z"
        clip-rule="evenodd" />
    <path fill="#ffaa8d" fill-rule="evenodd"
        d="M42.059,8.306c-0.492-0.226-3.067-0.083-2.012,3.379	c-2.576,0.211-3.349,2.492-1.914,4.344c-2.067,1.372,0,3.861,0.957,4.344c-2.392-0.087-4.239-3.193-2.122-4.344	c-1.491-2.413,0-5.067,2.122-5.067c-0.994-1.976,1.361-4.419,2.276-4.156C41.685,7.105,41.998,7.823,42.059,8.306z"
        clip-rule="evenodd" />
    <path fill="#ffaa8d" fill-rule="evenodd"
        d="M16.427,34.851c0,0,1.61-4.826,10.684-9.653	c5.769-3.069,6.238-7.722,6.238-7.722s1.258,5.111-5.263,8.566C20.459,30.082,16.427,34.851,16.427,34.851z"
        clip-rule="evenodd" />
    <polygon fill="#77b439" fill-rule="evenodd" points="36.729,24.345 37.575,23.894 38.469,25.601 36.777,26.503"
        clip-rule="evenodd" />
    <polygon fill="#77b439" fill-rule="evenodd" points="11.577,26.944 12.238,27.643 10.852,28.975 9.532,27.577"
        clip-rule="evenodd" />
    <polygon fill="#77b439" fill-rule="evenodd" points="19.951,13.808 19.376,14.58 17.846,13.421 18.995,11.877"
        clip-rule="evenodd" />
    <polygon fill="#77b439" fill-rule="evenodd" points="41.229,13.615 41.678,14.468 39.987,15.372 39.09,13.667"
        clip-rule="evenodd" />
    <polygon fill="#77b439" fill-rule="evenodd" points="22.279,32.79 22.343,33.753 20.434,33.882 20.306,31.955"
        clip-rule="evenodd" />
    <path fill="#ffaa8d" fill-rule="evenodd"
        d="M27.083,5.088c0.936-0.106,2.004,0.403,2.612,1.52	c1.139-1.156,1.555-1.886,2.757-2.353c1.417,0.404,2.849,2.795,2.81,4.679c0.828-2.907-0.84-4.961-2.871-5.938	c-1.384,0.68-2.157,1.519-2.711,2.413c-0.655-1.006-1.416-1.507-2.295-1.448L27.083,5.088z"
        clip-rule="evenodd" />
    <path fill="#ffaa8d" fill-rule="evenodd"
        d="M29.153,5.556c0.251,1.121,0.013,2.185-0.471,3.232	c0.551-0.625,1.66-1.923,1.774-3.464C30.091,5.821,29.541,5.934,29.153,5.556z"
        clip-rule="evenodd" />
    <path fill="#ffaa8d" fill-rule="evenodd"
        d="M35.664,7.673c0.301-0.971,1.312-2.131,2.395-1.242	c0.662,0.544,0.918,2.241,1.031,3.805c0.478-2.97-0.034-4.363-1.17-5.157c-1.507,0.051-2.278,0.715-2.658,1.707L35.664,7.673z"
        clip-rule="evenodd" />
</svg>
